<svg width="30" height="30" viewBox="0 0 30 30" fill="none" xmlns="http://www.w3.org/2000/svg">
<path opacity="0.4" d="M27.5 9.7625V20.2375C27.5 23.75 25.8875 26.1625 23.05 27.075C22.225 27.3625 21.275 27.5 20.2375 27.5H9.7625C8.725 27.5 7.775 27.3625 6.95 27.075C4.1125 26.1625 2.5 23.75 2.5 20.2375V9.7625C2.5 5.2125 5.2125 2.5 9.7625 2.5H20.2375C24.7875 2.5 27.5 5.2125 27.5 9.7625Z" fill="#3789c1"/>
<path d="M23.0502 27.0749C22.2252 27.3624 21.2752 27.4999 20.2377 27.4999H9.7627C8.7252 27.4999 7.7752 27.3624 6.9502 27.0749C7.3877 23.7749 10.8377 21.2124 15.0002 21.2124C19.1627 21.2124 22.6127 23.7749 23.0502 27.0749Z" fill="#3789c1"/>
<path d="M19.4749 14.475C19.4749 16.95 17.4749 18.9625 14.9999 18.9625C12.5249 18.9625 10.5249 16.95 10.5249 14.475C10.5249 12 12.5249 10 14.9999 10C17.4749 10 19.4749 12 19.4749 14.475Z" fill="#3789c1"/>
</svg>
