<svg width="24" height="25" viewBox="0 0 24 25" fill="none" xmlns="http://www.w3.org/2000/svg">
<path d="M17.933 21.7751C17.717 20.5751 16.985 19.4821 15.873 18.6991C14.762 17.9161 13.346 17.4971 11.891 17.5191C10.436 17.5411 9.03902 18.0031 7.96202 18.8191C6.88502 19.6351 6.20202 20.7511 6.03802 21.9561" stroke="currentColor" stroke-width="2"/>
<path d="M12 13.5182C13.6569 13.5182 15 12.175 15 10.5182C15 8.86133 13.6569 7.51819 12 7.51819C10.3431 7.51819 9 8.86133 9 10.5182C9 12.175 10.3431 13.5182 12 13.5182Z" stroke="currentColor" stroke-linecap="round" stroke-width="2"/>
<path d="M18 3.01819H6C4.067 3.01819 2.5 4.58519 2.5 6.51819V18.5182C2.5 20.4512 4.067 22.0182 6 22.0182H18C19.933 22.0182 21.5 20.4512 21.5 18.5182V6.51819C21.5 4.58519 19.933 3.01819 18 3.01819Z" stroke="currentColor" stroke-width="2"/>
</svg>
