<svg width="24" height="25" viewBox="0 0 24 25" fill="currentColor" xmlns="http://www.w3.org/2000/svg" >
<path d="M16.75 18.9266C16.9489 18.9266 17.1397 18.8476 17.2803 18.707C17.421 18.5663 17.5 18.3755 17.5 18.1766V10.6766C17.5 10.4777 17.421 10.287 17.2803 10.1463C17.1397 10.0057 16.9489 9.92664 16.75 9.92664C16.5511 9.92664 16.3603 10.0057 16.2197 10.1463C16.079 10.287 16 10.4777 16 10.6766V18.1766C16 18.3755 16.079 18.5663 16.2197 18.707C16.3603 18.8476 16.5511 18.9266 16.75 18.9266ZM12 18.9266C12.1989 18.9266 12.3897 18.8476 12.5303 18.707C12.671 18.5663 12.75 18.3755 12.75 18.1766V13.6766C12.75 13.4777 12.671 13.287 12.5303 13.1463C12.3897 13.0057 12.1989 12.9266 12 12.9266C11.8011 12.9266 11.6103 13.0057 11.4697 13.1463C11.329 13.287 11.25 13.4777 11.25 13.6766V18.1766C11.25 18.3755 11.329 18.5663 11.4697 18.707C11.6103 18.8476 11.8011 18.9266 12 18.9266ZM8 18.1766C8 18.3755 7.92098 18.5663 7.78033 18.707C7.63968 18.8476 7.44891 18.9266 7.25 18.9266C7.05109 18.9266 6.86032 18.8476 6.71967 18.707C6.57902 18.5663 6.5 18.3755 6.5 18.1766L6.5 8.67664C6.5 8.47772 6.57902 8.28696 6.71967 8.14631C6.86032 8.00565 7.05109 7.92664 7.25 7.92664C7.44891 7.92664 7.63968 8.00565 7.78033 8.14631C7.92098 8.28696 8 8.47772 8 8.67664L8 18.1766Z" fill="currentColor" stroke="currentColor" stroke-width="2" />
<path d="M20.25 22.9266L3.75 22.9266C2.784 22.9266 2 22.1426 2 21.1766L2 4.67664C2 4.21251 2.18438 3.76739 2.51256 3.4392C2.84075 3.11101 3.28587 2.92664 3.75 2.92664L20.25 2.92664C20.7141 2.92664 21.1592 3.11101 21.4874 3.4392C21.8156 3.76739 22 4.21251 22 4.67664L22 21.1766C22 22.1426 21.216 22.9266 20.25 22.9266ZM20.5 21.1766L20.5 4.67664C20.5 4.53864 20.388 4.42664 20.25 4.42664L3.75 4.42664C3.6837 4.42664 3.62011 4.45297 3.57322 4.49986C3.52634 4.54674 3.5 4.61033 3.5 4.67664L3.5 21.1766C3.5 21.2429 3.52634 21.3065 3.57322 21.3534C3.62011 21.4003 3.6837 21.4266 3.75 21.4266L20.25 21.4266C20.3163 21.4266 20.3799 21.4003 20.4268 21.3534C20.4737 21.3065 20.5 21.2429 20.5 21.1766Z" fill="currentColor" />
</svg>
