<svg width="24" height="25" viewBox="0 0 24 25" fill="none" xmlns="http://www.w3.org/2000/svg">
<path d="M6 11.8447C6 9.01673 6 7.60173 6.879 6.72373C7.757 5.84473 9.172 5.84473 12 5.84473H15C17.828 5.84473 19.243 5.84473 20.121 6.72373C21 7.60173 21 9.01673 21 11.8447V16.8447C21 19.6727 21 21.0877 20.121 21.9657C19.243 22.8447 17.828 22.8447 15 22.8447H12C9.172 22.8447 7.757 22.8447 6.879 21.9657C6 21.0877 6 19.6727 6 16.8447V11.8447Z" stroke="currentColor" stroke-width="2"/>
<path d="M6 19.8447C5.20435 19.8447 4.44129 19.5287 3.87868 18.966C3.31607 18.4034 3 17.6404 3 16.8447V10.8447C3 7.07373 3 5.18773 4.172 4.01673C5.344 2.84573 7.229 2.84473 11 2.84473H15C15.7956 2.84473 16.5587 3.1608 17.1213 3.72341C17.6839 4.28602 18 5.04908 18 5.84473" stroke="currentColor" stroke-width="2"/>
</svg>
