<svg width="24" height="25" viewBox="0 0 24 25" fill="none" xmlns="http://www.w3.org/2000/svg">
<path d="M5.38098 21.4712H15.9885C18.8945 21.4712 21.25 19.1152 21.25 16.2097V3.13623H10.646C10.3004 3.1361 9.95825 3.20406 9.63899 3.33624C9.31972 3.46841 9.02963 3.6622 8.78529 3.90654C8.54095 4.15088 8.34716 4.44097 8.21499 4.76024C8.08281 5.0795 8.01485 5.42169 8.01498 5.76723L8.01148 8.31723" stroke="currentColor" stroke-width="2" stroke-linecap="round" stroke-linejoin="round"/>
<path d="M2.75 12.9992H8.0115M11.2185 12.9992H17.899M11.2185 16.3922H17.899M5.381 8.31718H8.0115V18.8402C8.01124 19.5378 7.73402 20.2068 7.24078 20.7001C6.74754 21.1934 6.07862 21.4708 5.381 21.4712C4.6833 21.4709 4.01425 21.1936 3.52089 20.7003C3.02754 20.2069 2.75027 19.5379 2.75 18.8402V10.9477C2.7504 10.2501 3.02774 9.58114 3.52107 9.0879C4.01441 8.59466 4.68338 8.31745 5.381 8.31718ZM11.2185 6.96118H14.1375V9.88018H11.2185V6.96118Z" stroke="currentColor" stroke-width="2" stroke-linecap="round" stroke-linejoin="round"/>
</svg>
