<svg width="30" height="30" viewBox="0 0 30 30" fill="none" xmlns="http://www.w3.org/2000/svg">
<path opacity="0.4" d="M20.2375 2.5H9.7625C5.2125 2.5 2.5 5.2125 2.5 9.7625V20.225C2.5 24.7875 5.2125 27.5 9.7625 27.5H20.225C24.775 27.5 27.4875 24.7875 27.4875 20.2375V9.7625C27.5 5.2125 24.7875 2.5 20.2375 2.5Z" fill="#3789c1"/>
<path d="M19.8626 10.1374C18.0126 8.2999 15.0126 8.2999 13.1751 10.1374C11.8876 11.4124 11.5001 13.2624 12.0001 14.8874L9.06262 17.8249C8.86262 18.0374 8.71262 18.4499 8.76262 18.7499L8.95012 20.1124C9.01262 20.5624 9.43762 20.9874 9.88762 21.0499L11.2501 21.2499C11.5501 21.2874 11.9626 21.1624 12.1751 20.9374L12.6876 20.4249C12.8126 20.3124 12.8126 20.1124 12.6876 19.9874L11.4751 18.7749C11.3001 18.5999 11.3001 18.2999 11.4751 18.1124C11.6501 17.9374 11.9501 17.9374 12.1376 18.1124L13.3501 19.3249C13.4626 19.4374 13.6626 19.4374 13.7876 19.3249L15.1126 18.0124C16.7251 18.5124 18.5751 18.1249 19.8626 16.8499C21.7126 14.9874 21.7126 11.9874 19.8626 10.1374ZM16.5626 14.9999C15.7001 14.9999 15.0001 14.2999 15.0001 13.4374C15.0001 12.5749 15.7001 11.8749 16.5626 11.8749C17.4251 11.8749 18.1251 12.5749 18.1251 13.4374C18.1251 14.2999 17.4251 14.9999 16.5626 14.9999Z" fill="#3789c1"/>
</svg>
