<svg width="24" height="25" viewBox="0 0 24 25" fill="none" xmlns="http://www.w3.org/2000/svg">
<path d="M8.67188 14.6336C8.67188 15.9236 9.66188 16.9636 10.8919 16.9636H13.4019C14.4719 16.9636 15.3419 16.0536 15.3419 14.9336C15.3419 13.7136 14.8119 13.2836 14.0219 13.0036L9.99187 11.6036C9.20187 11.3236 8.67188 10.8936 8.67188 9.67355C8.67188 8.55355 9.54187 7.64355 10.6119 7.64355H13.1219C14.3519 7.64355 15.3419 8.68355 15.3419 9.97355" stroke="currentColor" stroke-width="2" stroke-linecap="round" stroke-linejoin="round"/>
<path d="M12 6.30371V18.3037" stroke="currentColor" stroke-width="2" stroke-linecap="round" stroke-linejoin="round"/>
<path d="M15 22.3037H9C4 22.3037 2 20.3037 2 15.3037V9.30371C2 4.30371 4 2.30371 9 2.30371H15C20 2.30371 22 4.30371 22 9.30371V15.3037C22 20.3037 20 22.3037 15 22.3037Z" stroke="currentColor" stroke-width="2" stroke-linecap="round" stroke-linejoin="round"/>
</svg>
