<svg width="22" height="22" viewBox="0 0 22 22" fill="currentColor" xmlns="http://www.w3.org/2000/svg">
<g clip-path="url(#clip0_282_671)">
<path d="M15.081 6.919C14.9787 6.8159 14.8571 6.73407 14.723 6.67822C14.589 6.62237 14.4452 6.59362 14.3 6.59362C14.1548 6.59362 14.011 6.62237 13.877 6.67822C13.7429 6.73407 13.6213 6.8159 13.519 6.919L11 9.449L8.481 6.919C8.27387 6.71187 7.99293 6.5955 7.7 6.5955C7.40707 6.5955 7.12613 6.71187 6.919 6.919C6.71187 7.12613 6.5955 7.40707 6.5955 7.7C6.5955 7.99293 6.71187 8.27387 6.919 8.481L9.449 11L6.919 13.519C6.8159 13.6213 6.73407 13.7429 6.67822 13.877C6.62237 14.011 6.59362 14.1548 6.59362 14.3C6.59362 14.4452 6.62237 14.589 6.67822 14.723C6.73407 14.8571 6.8159 14.9787 6.919 15.081C7.02126 15.1841 7.14292 15.2659 7.27697 15.3218C7.41101 15.3776 7.55479 15.4064 7.7 15.4064C7.84521 15.4064 7.98899 15.3776 8.12303 15.3218C8.25708 15.2659 8.37874 15.1841 8.481 15.081L11 12.551L13.519 15.081C13.6213 15.1841 13.7429 15.2659 13.877 15.3218C14.011 15.3776 14.1548 15.4064 14.3 15.4064C14.4452 15.4064 14.589 15.3776 14.723 15.3218C14.8571 15.2659 14.9787 15.1841 15.081 15.081C15.1841 14.9787 15.2659 14.8571 15.3218 14.723C15.3776 14.589 15.4064 14.4452 15.4064 14.3C15.4064 14.1548 15.3776 14.011 15.3218 13.877C15.2659 13.7429 15.1841 13.6213 15.081 13.519L12.551 11L15.081 8.481C15.1841 8.37874 15.2659 8.25708 15.3218 8.12303C15.3776 7.98899 15.4064 7.84521 15.4064 7.7C15.4064 7.55479 15.3776 7.41101 15.3218 7.27697C15.2659 7.14292 15.1841 7.02126 15.081 6.919ZM18.7 0H3.3C2.42479 0 1.58542 0.347678 0.966548 0.966548C0.347678 1.58542 0 2.42479 0 3.3V18.7C0 19.5752 0.347678 20.4146 0.966548 21.0335C1.58542 21.6523 2.42479 22 3.3 22H18.7C19.5752 22 20.4146 21.6523 21.0335 21.0335C21.6523 20.4146 22 19.5752 22 18.7V3.3C22 2.42479 21.6523 1.58542 21.0335 0.966548C20.4146 0.347678 19.5752 0 18.7 0ZM19.8 18.7C19.8 18.9917 19.6841 19.2715 19.4778 19.4778C19.2715 19.6841 18.9917 19.8 18.7 19.8H3.3C3.00826 19.8 2.72847 19.6841 2.52218 19.4778C2.31589 19.2715 2.2 18.9917 2.2 18.7V3.3C2.2 3.00826 2.31589 2.72847 2.52218 2.52218C2.72847 2.31589 3.00826 2.2 3.3 2.2H18.7C18.9917 2.2 19.2715 2.31589 19.4778 2.52218C19.6841 2.72847 19.8 3.00826 19.8 3.3V18.7Z" fill="currentColor"/>
</g>
<defs>
<clipPath id="clip0_282_671">
<rect width="22" height="22" fill="currentColor"/>
</clipPath>
</defs>
</svg>
