<svg width="19" height="19" viewBox="0 0 19 19" fill="none" xmlns="http://www.w3.org/2000/svg">
<path fill-rule="evenodd" clip-rule="evenodd" d="M10.6875 2.375H8.31253C8.15506 2.375 8.00404 2.43756 7.89269 2.54891C7.78134 2.66026 7.71878 2.81128 7.71878 2.96875V3.5625H11.2813V2.96875C11.2813 2.81128 11.2187 2.66026 11.1074 2.54891C10.996 2.43756 10.845 2.375 10.6875 2.375ZM13.0625 3.5625V2.96875C13.0625 2.33886 12.8123 1.73477 12.3669 1.28937C11.9215 0.843973 11.3174 0.59375 10.6875 0.59375H8.31253C7.68264 0.59375 7.07855 0.843973 6.63315 1.28937C6.18776 1.73477 5.93753 2.33886 5.93753 2.96875V3.5625H2.6731C2.43689 3.5625 2.21035 3.65633 2.04333 3.82336C1.8763 3.99038 1.78247 4.21692 1.78247 4.45312C1.78247 4.68933 1.8763 4.91587 2.04333 5.08289C2.21035 5.24992 2.43689 5.34375 2.6731 5.34375H3.0436L3.42003 14.3984C3.45834 15.3169 3.85019 16.185 4.51367 16.8213C5.17715 17.4575 6.0609 17.8127 6.98016 17.8125H12.0211C12.9401 17.8124 13.8236 17.4571 14.4868 16.8209C15.1501 16.1846 15.5417 15.3167 15.58 14.3984L15.9577 5.34375H16.3282C16.5644 5.34375 16.7909 5.24992 16.9579 5.08289C17.1249 4.91587 17.2188 4.68933 17.2188 4.45312C17.2188 4.21692 17.1249 3.99038 16.9579 3.82336C16.7909 3.65633 16.5644 3.5625 16.3282 3.5625H13.0625ZM14.174 5.34375H4.82603L5.2001 14.3236C5.2191 14.783 5.41496 15.2172 5.74672 15.5354C6.07847 15.8537 6.52043 16.0313 6.98016 16.0312H12.0211C12.4806 16.031 12.9223 15.8532 13.2538 15.535C13.5853 15.2168 13.781 14.7828 13.8 14.3236L14.174 5.34375ZM6.82816 7.71875V13.6562C6.82816 13.8925 6.92199 14.119 7.08902 14.286C7.25604 14.453 7.48257 14.5469 7.71878 14.5469C7.95499 14.5469 8.18153 14.453 8.34855 14.286C8.51557 14.119 8.60941 13.8925 8.60941 13.6562V7.71875C8.60941 7.48254 8.51557 7.25601 8.34855 7.08898C8.18153 6.92196 7.95499 6.82813 7.71878 6.82812C7.48257 6.82813 7.25604 6.92196 7.08902 7.08898C6.92199 7.25601 6.82816 7.48254 6.82816 7.71875ZM11.2813 6.82812C11.5175 6.82813 11.744 6.92196 11.911 7.08898C12.0781 7.25601 12.1719 7.48254 12.1719 7.71875V13.6562C12.1719 13.8925 12.0781 14.119 11.911 14.286C11.744 14.453 11.5175 14.5469 11.2813 14.5469C11.0451 14.5469 10.8185 14.453 10.6515 14.286C10.4845 14.119 10.3907 13.8925 10.3907 13.6562V7.71875C10.3907 7.48254 10.4845 7.25601 10.6515 7.08898C10.8185 6.92196 11.0451 6.82813 11.2813 6.82812Z" fill="currentColor"/>
</svg>
