<svg width="30" height="30" viewBox="0 0 30 30" fill="none" xmlns="http://www.w3.org/2000/svg">
<g clip-path="url(#clip0_67_1575)">
<path d="M20.625 13.125C20.625 16.2375 18.1125 18.75 15 18.75C11.8875 18.75 9.375 16.2375 9.375 13.125C9.375 10.0125 11.8875 7.5 15 7.5C18.1125 7.5 20.625 10.0125 20.625 13.125Z" fill="currentColor"/>
<path d="M15 0.5C23.0114 0.5 29.5 6.98864 29.5 15C29.5 23.0114 23.0114 29.5 15 29.5C6.98864 29.5 0.5 23.0114 0.5 15C0.5 6.98864 6.98864 0.5 15 0.5ZM14.9814 1.375C7.44905 1.375 1.35645 7.46761 1.35645 15C1.35645 19.6326 3.67349 23.74 7.21582 26.1924L7.65332 26.4961L7.92871 26.0391C8.06794 25.8076 8.84241 24.5621 10.0938 23.3799C11.3515 22.1916 13.0288 21.125 14.9814 21.125C16.924 21.1251 18.6013 22.1933 19.8623 23.3838C21.1162 24.5676 21.8959 25.8135 22.0371 26.043L22.3135 26.4922L22.7471 26.1924C24.444 25.0189 25.8503 23.4756 26.8604 21.6807L27.0566 21.3184C28.0136 19.4903 28.5408 17.47 28.6006 15.4111L28.6064 14.999C28.6059 7.46715 22.5134 1.37511 14.9814 1.375Z" fill="currentColor" stroke="currentColor"/>
</g>
<defs>
<clipPath id="clip0_67_1575">
<rect width="30" height="30" fill="currentColor"/>
</clipPath>
</defs>
</svg>
